PathFileType	4	(X/Y/Z)	C:/Users/opensim2020/Desktop/walking_exp_matlab/subject02_walking05_straight_02.trc	
DataRate	CameraRate	NumFrames	NumMarkers	Units	OrigDataRate	OrigDataStartFrame	OrigNumFrames	
100.00	100.00	8	42	mm	100.00	1517	243	
Frame#	Time	LFHD			RFHD			LBHD			RBHD			C7			T10			CLAV			STRN			RBAK			LSHO			LUPA			LELB			LFRM			LWRA			LWRB			LFIN			RSHO			RUPA			RELB			RFRM			RWRA			RWRB			RFIN			LASI			RASI			LPSI			RPSI			LTHI			LKNE			LTIB			LANK			LHEE			LTOE			RTHI			RKNE			RTIB			RANK			RHEE			RTOE			*39			*40			*41			
		X1	Y1	Z1	X2	Y2	Z2	X3	Y3	Z3	X4	Y4	Z4	X5	Y5	Z5	X6	Y6	Z6	X7	Y7	Z7	X8	Y8	Z8	X9	Y9	Z9	X10	Y10	Z10	X11	Y11	Z11	X12	Y12	Z12	X13	Y13	Z13	X14	Y14	Z14	X15	Y15	Z15	X16	Y16	Z16	X17	Y17	Z17	X18	Y18	Z18	X19	Y19	Z19	X20	Y20	Z20	X21	Y21	Z21	X22	Y22	Z22	X23	Y23	Z23	X24	Y24	Z24	X25	Y25	Z25	X26	Y26	Z26	X27	Y27	Z27	X28	Y28	Z28	X29	Y29	Z29	X30	Y30	Z30	X31	Y31	Z31	X32	Y32	Z32	X33	Y33	Z33	X34	Y34	Z34	X35	Y35	Z35	X36	Y36	Z36	X37	Y37	Z37	X38	Y38	Z38	X39	Y39	Z39	X40	Y40	Z40	X41	Y41	Z41	X42	Y42	Z42	

152	1.510	1499.46692	-256.10892	1724.29480	1357.96082	-241.75320	1698.91821	1525.60242	-139.12383	1632.76587	1386.98328	-112.83561	1605.30713	1456.31995	-85.65957	1496.86743	1449.64661	-30.89171	1222.83276	1468.21899	-223.74695	1426.65613	1468.17664	-272.33984	1253.58020	1397.09534	-26.08768	1322.79553	1636.34460	-159.56248	1477.72961	1726.99817	-182.06879	1284.67322	1747.87305	-222.44775	1147.29028	1742.69446	-299.61511	1036.95178	1686.12512	-403.70001	964.34155	1725.45032	-371.85129	939.34631	1720.04431	-424.61017	900.15222	1270.36096	-162.83504	1452.70715	1192.87305	-118.04420	1263.96423	1172.56104	-119.13310	1119.13293	1145.72363	-137.80228	1002.10504	1153.05359	-182.23320	873.03510	1128.33960	-131.17877	873.04535	1118.69324	-164.43582	808.77881	1606.31628	-241.21945	953.33380	1350.79883	-280.63672	956.77240	1490.59375	-46.59258	999.48895	1378.21338	-57.53736	1003.12152	1635.53162	-113.77542	651.73138	1598.78101	-39.62518	464.79434	1590.00232	87.72874	316.65887	1552.29834	171.39334	107.96958	1499.56250	210.95595	93.78078	1570.83105	33.47707	31.37069	1258.86792	-283.80634	666.11670	1297.86011	-340.38068	467.15854	1285.47986	-345.48587	279.41156	1312.70959	-371.01218	87.09566	1367.81897	-342.29297	34.42555	1308.95813	-528.28931	44.10446	1420.52502	-136.10236	1771.65393	-3356.81470	2845.92871	1033.67847			 
153	1.520	1497.34094	-266.01477	1724.86182	1355.98938	-252.03342	1699.40125	1523.50916	-149.17989	1633.31201	1384.94043	-123.06945	1605.47656	1454.28418	-96.02425	1497.50647	1448.17822	-41.68825	1223.01147	1466.54871	-234.09016	1427.35474	1466.50293	-283.22034	1254.44666	1394.67578	-36.97267	1322.97314	1634.91736	-169.40549	1478.10706	1724.55823	-190.39174	1284.00696	1745.42664	-229.07356	1146.25122	1740.66907	-305.08734	1035.16553	1684.70313	-408.72293	961.44006	1723.83142	-376.36649	936.80389	1718.63538	-428.65521	896.94592	1268.06348	-174.06828	1452.64441	1191.60742	-128.34578	1263.49854	1171.41956	-130.23627	1118.90210	1144.73926	-148.21681	1001.72052	1151.80969	-191.56421	872.41949	1127.18982	-140.51169	872.89172	1117.55676	-173.21498	808.31525	1604.11304	-253.55438	953.21307	1348.68433	-292.55099	958.10364	1488.97827	-58.89429	999.68964	1376.25391	-69.56105	1004.69611	1634.24951	-125.43593	652.06146	1598.51172	-51.76297	465.65045	1589.53491	79.15868	320.63797	1552.86609	167.81288	113.87666	1499.89880	207.01744	100.99923	1571.01733	33.20086	31.37512	1257.24988	-294.18814	667.47827	1297.91028	-354.27585	469.31448	1284.01807	-356.54160	281.60425	1313.12341	-373.10556	88.21754	1367.44739	-342.78757	35.00704	1309.63391	-529.14465	41.57309	1418.24927	-146.10147	1772.03894						 
154	1.530	1495.33496	-275.91580	1725.57520	1353.98950	-262.22742	1700.00659	1521.43762	-159.18509	1634.05688	1382.77307	-133.51720	1606.09119	1452.29724	-106.44308	1498.41504	1446.78357	-52.49898	1223.28430	1464.89600	-244.31099	1428.26294	1464.83386	-294.12390	1255.61902	1392.80676	-47.74044	1323.38074	1633.42859	-179.41917	1478.78271	1722.57104	-198.22926	1284.02502	1742.91296	-235.40480	1145.60205	1738.47668	-310.18860	1033.37036	1683.24268	-413.33008	958.28113	1722.31165	-380.12732	934.25641	1717.22400	-432.21359	893.70361	1266.36975	-184.94807	1453.09595	1190.30164	-139.51093	1263.58496	1170.26343	-141.52213	1119.06787	1143.60889	-158.68182	1001.91357	1150.61572	-201.28883	872.25098	1125.98987	-150.19333	873.10663	1116.40112	-182.32782	808.24670	1601.26807	-265.87454	953.38690	1346.49011	-304.52667	959.86334	1487.72327	-71.46221	1000.40674	1374.33716	-81.32294	1006.45197	1632.73840	-137.69879	652.45502	1598.74414	-64.89829	466.82782	1589.41614	69.49675	325.08835	1553.47131	163.47424	120.47387	1500.18408	202.12825	109.41783	1571.22827	32.83854	31.36954	1256.48096	-305.10986	668.79248	1297.77222	-367.73596	470.45575	1282.86108	-366.36603	282.77667	1313.97241	-375.68256	88.84444	1367.24536	-343.54376	35.50958	1311.59656	-531.05481	39.76283	1415.86365	-156.11557	1772.67383	-3356.82422	2845.92725	1033.72595			 
155	1.540	1493.33582	-285.90164	1726.61804	1352.02600	-272.54062	1700.87012	1519.38977	-169.17113	1635.06592	1380.80969	-143.59200	1606.79224	1450.37439	-116.54237	1499.37964	1445.41370	-63.16188	1223.80017	1463.27112	-254.49957	1429.41614	1463.14539	-305.02774	1257.03333	1391.16174	-57.84893	1324.06006	1631.85840	-189.43150	1479.74756	1720.25806	-206.23630	1284.15991	1740.35547	-241.59944	1145.32458	1736.58521	-314.55527	1032.11902	1682.30237	-417.05881	955.52264	1720.88049	-383.29285	931.85345	1716.38037	-434.55911	890.59198	1264.56848	-195.67239	1453.94922	1188.25269	-151.41998	1264.34741	1169.39722	-152.93195	1119.63477	1142.45215	-169.29059	1002.69989	1149.46619	-211.21985	872.53400	1124.84119	-160.49373	873.87170	1115.27209	-191.77415	808.68524	1597.94556	-278.82309	953.99524	1344.28040	-316.54581	961.97339	1486.57251	-83.86691	1001.32782	1372.45667	-92.86269	1008.08618	1631.49951	-150.28680	653.14038	1599.35791	-79.42953	468.01459	1589.46851	58.78101	330.03397	1554.01367	158.27162	127.84660	1500.03040	195.68300	118.13287	1571.44958	32.56120	31.32993	1255.58789	-317.11365	669.85767	1298.09399	-378.55786	470.79749	1283.08252	-374.54947	282.76221	1313.91284	-378.68021	89.48488	1367.31531	-344.30664	36.02602	1312.38110	-533.08307	38.50044	1413.64746	-166.19434	1773.59741	-3360.18018	2845.20337	1033.79370			 
156	1.550	1491.42407	-295.86017	1727.98450	1350.05957	-282.66321	1701.88562	1517.40063	-179.09210	1636.31909	1378.84814	-153.86388	1607.78699	1448.66809	-126.36369	1500.27722	1443.78247	-73.80221	1224.50476	1461.74243	-264.67291	1430.81921	1461.54114	-315.91483	1258.74805	1389.08533	-68.91080	1324.52539	1630.25513	-199.34628	1481.01843	1718.33728	-213.83699	1284.81262	1737.81128	-247.60396	1145.49011	1734.61841	-318.66528	1031.03198	1681.27332	-420.39267	952.63776	1719.54810	-385.83139	929.53271	1715.61902	-436.46234	887.49908	1263.22876	-205.95227	1455.30615	1186.49902	-162.96980	1265.36316	1168.31909	-164.45055	1120.64502	1141.17664	-180.48535	1003.73682	1148.29639	-221.56778	873.42023	1123.52759	-170.67395	875.04688	1114.11902	-201.67982	809.48071	1595.34546	-290.48782	954.98169	1341.95801	-328.59103	964.42810	1485.52197	-95.97778	1002.30322	1370.61963	-104.35769	1009.34058	1630.01807	-163.71024	653.61914	1600.60437	-95.16225	469.03003	1589.42444	46.89586	335.39340	1554.49231	151.99876	135.91733	1499.81482	187.94044	128.06737	1571.63611	32.22950	31.36150	1254.59888	-329.82715	670.42548	1297.77954	-388.34448	470.36755	1283.57019	-381.19742	282.41669	1314.56860	-380.29782	89.17452	1367.64514	-344.76019	36.27583	1311.98560	-534.09430	37.47100	1411.51245	-176.29420	1774.60962	-3360.28296	2845.34741	1033.80664			 
157	1.560	1489.56213	-305.89355	1729.32849	1348.24963	-292.90329	1702.99841	1515.54993	-188.98282	1637.80066	1376.95374	-163.93651	1609.05554	1447.18750	-135.99620	1501.22437	1442.00342	-84.51286	1225.35193	1460.27759	-274.67468	1432.37939	1459.92834	-326.74588	1260.64355	1387.35095	-79.58831	1325.41077	1628.69849	-209.08490	1482.49011	1716.09265	-221.73782	1285.53015	1735.24585	-253.54539	1146.00354	1732.68347	-322.45132	1030.13977	1680.33850	-423.12918	949.67407	1718.14392	-388.00354	927.24860	1714.80774	-437.49365	884.25616	1261.74316	-216.01614	1456.93799	1184.91699	-173.99205	1266.66199	1167.00146	-176.14346	1122.16614	1140.15002	-192.22499	1005.24310	1147.11682	-232.40933	874.71649	1122.21521	-181.45413	876.52814	1113.07288	-212.01138	810.69116	1592.13635	-302.49423	956.25671	1339.54626	-340.56039	966.99353	1484.16602	-107.71503	1003.25183	1368.74719	-115.82430	1010.35864	1629.26172	-177.38831	654.15387	1602.12415	-111.89585	469.80048	1589.50903	33.48578	340.60361	1554.86414	143.77800	143.93240	1499.18225	178.51083	137.91776	1571.59912	31.58022	31.47495	1253.76160	-342.38315	670.67041	1297.23901	-396.91663	469.86371	1283.70483	-385.13794	281.67535	1314.99890	-381.03909	89.19903	1367.80176	-344.93585	36.38260	1312.43604	-534.94122	36.74806	1409.32092	-186.37257	1775.94482	-3360.21313	2845.25146	1033.86865			 
158	1.570	1487.73145	-315.74316	1730.79810	1346.43408	-302.97736	1704.26672	1513.77332	-198.78752	1639.56213	1375.18970	-173.80409	1610.73071	1445.74194	-145.52309	1502.26208	1440.04004	-95.27953	1226.33069	1458.90552	-284.75244	1434.28381	1458.40552	-337.47803	1262.70544	1385.78442	-90.19292	1326.39246	1627.13904	-218.56616	1484.17578	1714.34131	-229.24969	1286.81860	1732.75269	-259.34674	1146.77930	1730.82300	-326.09412	1029.40222	1679.41821	-425.57938	946.70020	1717.33594	-389.10611	925.28638	1714.27185	-438.02762	881.15479	1260.14661	-225.92580	1458.80249	1183.36438	-184.99098	1268.26416	1165.94397	-187.83031	1123.91821	1139.02747	-203.38568	1006.96429	1145.98291	-243.53134	876.32135	1120.94556	-192.61337	878.34351	1111.90479	-222.77687	812.25964	1588.76379	-314.14349	957.63464	1336.99878	-352.30133	969.40631	1482.53027	-119.02274	1004.47021	1366.83484	-127.30201	1011.19080	1628.40674	-191.61363	654.41479	1603.66040	-129.43631	470.25821	1589.93347	18.57049	345.39786	1555.27734	134.11847	152.13510	1498.81653	167.36722	148.03743	1571.39807	30.65998	31.72762	1252.81946	-354.09003	670.81952	1296.14673	-404.29218	469.26309	1283.65723	-387.16025	281.24393	1315.37939	-381.63120	89.11994	1367.92053	-345.03925	36.47220	1313.08765	-535.81097	36.19400	1407.29285	-196.50105	1777.42163	-3360.07813	2845.06006	1033.76038			 
159	1.580	1486.11096	-325.69180	1732.53967	1344.81458	-313.08881	1705.65015	1512.14270	-208.49223	1641.49548	1373.61194	-183.76689	1612.15186	1444.42090	-155.27876	1503.52576	1437.89832	-106.08053	1227.36206	1457.53564	-294.62811	1436.28418	1456.96399	-348.10696	1264.86536	1384.40674	-100.56945	1327.33545	1625.63123	-227.81972	1485.89124	1712.35132	-236.93712	1288.15149	1730.33362	-265.03531	1147.78723	1728.97900	-329.20425	1028.93042	1679.01355	-427.50189	944.22156	1716.50049	-390.17560	923.43976	1713.76880	-437.95547	878.09766	1259.10400	-235.24481	1460.94910	1181.86951	-196.04204	1270.22949	1164.80823	-199.49985	1125.89185	1137.92944	-215.02095	1008.99243	1144.91064	-254.85165	878.16907	1119.69080	-204.05148	880.47247	1110.82507	-233.95761	814.07385	1585.41467	-325.42310	959.10736	1334.47803	-363.70453	971.53937	1480.63892	-129.87207	1005.96350	1364.88391	-138.74998	1012.13593	1627.93652	-206.21358	654.32513	1605.17346	-147.59892	470.41138	1589.90222	2.13911	349.43585	1555.75195	122.80214	160.16455	1498.48389	154.65358	158.09540	1571.10669	29.34830	32.19212	1251.24500	-364.61761	671.56219	1295.34131	-409.35553	468.52921	1283.73596	-388.35666	281.09488	1315.83154	-381.39276	88.84621	1368.04419	-345.03506	36.52527	1313.16455	-536.19812	35.77085	1405.18359	-206.62997	1779.06519	-3356.96729	2846.01489	1033.82532			 
